<svg width="23" height="16" viewBox="0 0 23 16" fill="none" xmlns="http://www.w3.org/2000/svg">
<path d="M3.08132 1.54066C3.08132 2.39162 2.39151 3.08132 1.54066 3.08132C0.689813 3.08132 0 2.39162 0 1.54066C0 0.689813 0.689813 0 1.54066 0C2.39151 0 3.08132 0.689813 3.08132 1.54066Z" fill="white"/>
<path d="M12.172 2.62872C12.45 2.35005 12.622 1.96551 12.622 1.54066C12.622 0.689813 11.9322 0 11.0813 0C10.5434 0 10.0705 0.276153 9.79488 0.693925C9.72168 0.767246 3.58861 8.32643 3.53128 8.41334C3.2533 8.692 3.0813 9.07666 3.0813 9.50128C3.0813 10.3522 3.77111 11.0421 4.62196 11.0421C5.15988 11.0421 5.63281 10.766 5.9084 10.3481C5.9816 10.2748 12.1147 2.71552 12.172 2.62872Z" fill="white"/>
<path d="M18.8022 2.62997C19.081 2.35108 19.2534 1.96608 19.2534 1.54066C19.2534 0.689813 18.5636 0 17.7127 0C17.1746 0 16.7014 0.276382 16.4258 0.694496C16.352 0.768389 13.1308 4.73905 13.0731 4.82653C12.7944 5.10542 12.622 5.49042 12.622 5.91573C12.622 6.76669 13.3118 7.45651 14.1627 7.45651C14.7008 7.45651 15.174 7.18012 15.4495 6.76201C15.5232 6.68823 18.7446 2.71746 18.8022 2.62997Z" fill="white"/>
<path d="M22.3347 1.54066C22.3347 2.39162 21.6449 3.08132 20.794 3.08132C19.9431 3.08132 19.2534 2.39162 19.2534 1.54066C19.2534 0.689813 19.9431 0 20.794 0C21.6449 0 22.3347 0.689813 22.3347 1.54066Z" fill="white"/>
</svg>
